<svg width="25" height="24" viewBox="0 0 25 24" fill="none" xmlns="http://www.w3.org/2000/svg">
<path d="M2.5 7C2.5 6.44772 2.94772 6 3.5 6H7.08579C7.351 6 7.60536 5.89464 7.79289 5.70711L9.20711 4.29289C9.39464 4.10536 9.649 4 9.91421 4H15.0858C15.351 4 15.6054 4.10536 15.7929 4.29289L17.2071 5.70711C17.3946 5.89464 17.649 6 17.9142 6H21.5C22.0523 6 22.5 6.44772 22.5 7V18C22.5 18.5523 22.0523 19 21.5 19H3.5C2.94772 19 2.5 18.5523 2.5 18V7Z" stroke="white" stroke-width="1.2"/>
<circle cx="12.5" cy="12" r="4.4" stroke="white" stroke-width="1.2"/>
</svg>
