<svg width="25" height="25" viewBox="0 0 25 25" fill="none" xmlns="http://www.w3.org/2000/svg">
<path d="M2.5 7.5C2.5 6.94772 2.94772 6.5 3.5 6.5H7.08579C7.351 6.5 7.60536 6.39464 7.79289 6.20711L9.20711 4.79289C9.39464 4.60536 9.649 4.5 9.91421 4.5H15.0858C15.351 4.5 15.6054 4.60536 15.7929 4.79289L17.2071 6.20711C17.3946 6.39464 17.649 6.5 17.9142 6.5H21.5C22.0523 6.5 22.5 6.94772 22.5 7.5V18.5C22.5 19.0523 22.0523 19.5 21.5 19.5H3.5C2.94772 19.5 2.5 19.0523 2.5 18.5V7.5Z" stroke="#141522" stroke-width="1.2"/>
<circle cx="12.5" cy="12.5" r="4.4" stroke="#141522" stroke-width="1.2"/>
</svg>
