<svg width="18" height="18" viewBox="0 0 18 18" fill="none" xmlns="http://www.w3.org/2000/svg">
<path d="M12.285 17.0625H2.42994C1.71744 17.0625 1.05745 16.7325 0.629949 16.155C0.194949 15.57 0.0674552 14.835 0.284955 14.1375L3.44245 3.98996C3.72745 3.04496 4.59746 2.39996 5.58746 2.39996H14.8125C15.72 2.39996 16.5375 2.94003 16.8825 3.78003C17.07 4.21503 17.1075 4.71004 16.995 5.19754L14.4675 15.345C14.2275 16.3575 13.3275 17.0625 12.285 17.0625ZM5.59495 3.53247C5.10745 3.53247 4.66495 3.85501 4.52245 4.32751L1.36496 14.475C1.25996 14.8275 1.31995 15.195 1.54495 15.495C1.75495 15.78 2.08495 15.945 2.43745 15.945H12.2925C12.81 15.945 13.2599 15.5925 13.3799 15.09L15.9074 4.93497C15.9674 4.68747 15.9525 4.44 15.855 4.2225C15.675 3.795 15.2775 3.52496 14.82 3.52496H5.59495V3.53247Z" fill="#9C9CA4"/>
<path d="M15.585 17.0625H12C11.6925 17.0625 11.4375 16.8075 11.4375 16.5C11.4375 16.1925 11.6925 15.9375 12 15.9375H15.585C15.8925 15.9375 16.1775 15.81 16.3875 15.585C16.5975 15.36 16.7025 15.06 16.68 14.7525L15.9375 4.53751C15.915 4.23001 16.1475 3.95998 16.455 3.93748C16.7625 3.92248 17.0325 4.14743 17.055 4.45493L17.7975 14.67C17.8425 15.285 17.625 15.9 17.205 16.35C16.7925 16.8075 16.2 17.0625 15.585 17.0625Z" fill="#9C9CA4"/>
<path d="M7.25982 5.34747C7.21482 5.34747 7.16983 5.33995 7.12483 5.33245C6.82483 5.25745 6.63734 4.95743 6.71234 4.64993L7.49232 1.40997C7.56732 1.10997 7.86733 0.922432 8.17483 0.997432C8.47483 1.07243 8.66234 1.37246 8.58734 1.67996L7.80733 4.92001C7.74733 5.17501 7.51482 5.34747 7.25982 5.34747Z" fill="#9C9CA4"/>
<path d="M12.285 5.35499C12.2475 5.35499 12.2025 5.35498 12.165 5.33998C11.865 5.27248 11.67 4.97246 11.73 4.67246L12.4349 1.41749C12.5024 1.10999 12.8025 0.922523 13.1025 0.982523C13.4025 1.04252 13.5974 1.34994 13.5374 1.64994L12.8324 4.90501C12.7799 5.17501 12.5475 5.35499 12.285 5.35499Z" fill="#9C9CA4"/>
<path d="M11.7751 9.5625H5.77515C5.46765 9.5625 5.21265 9.3075 5.21265 9C5.21265 8.6925 5.46765 8.4375 5.77515 8.4375H11.7751C12.0826 8.4375 12.3376 8.6925 12.3376 9C12.3376 9.3075 12.0826 9.5625 11.7751 9.5625Z" fill="#9C9CA4"/>
<path d="M11.0251 12.5625H5.02515C4.71765 12.5625 4.46265 12.3075 4.46265 12C4.46265 11.6925 4.71765 11.4375 5.02515 11.4375H11.0251C11.3326 11.4375 11.5876 11.6925 11.5876 12C11.5876 12.3075 11.3326 12.5625 11.0251 12.5625Z" fill="#9C9CA4"/>
</svg>
