<svg width="116" height="24" viewBox="0 0 116 24" fill="none" xmlns="http://www.w3.org/2000/svg">
<path d="M11.42 23.36C16.13 23.36 19.61 20.66 20.75 17.54L17.39 15.92C16.46 18.29 14.33 19.94 11.42 19.94C7.07 19.94 4.07 16.64 4.07 11.81C4.07 7.01 7.07 3.71 11.42 3.71C14.33 3.71 16.46 5.36 17.39 7.73L20.75 6.11C19.61 2.99 16.13 0.289999 11.42 0.289999C5 0.289999 0.29 5.15 0.29 11.81C0.29 18.47 5.03 23.36 11.42 23.36ZM30.9179 23.36C35.6279 23.36 39.4079 19.79 39.4079 14.9C39.4079 10.01 35.6579 6.47 30.9179 6.47C26.1479 6.47 22.4279 10.01 22.4279 14.9C22.4279 19.79 26.1779 23.36 30.9179 23.36ZM30.9179 20.03C28.1579 20.03 26.1779 17.9 26.1779 14.93C26.1779 11.96 28.1579 9.8 30.9179 9.8C33.6479 9.8 35.6579 11.96 35.6579 14.93C35.6579 17.9 33.6479 20.03 30.9179 20.03ZM52.1307 6.83V16.43C52.1307 18.62 50.7507 20.03 48.7107 20.03C46.6407 20.03 45.2607 18.62 45.2607 16.43V6.83H41.6607V16.88C41.6607 20.6 44.1807 23.36 47.7807 23.36C49.7607 23.36 51.4107 22.55 52.3107 21.14V23H55.7307V6.83H52.1307ZM66.9866 6.65C65.0066 6.65 63.4466 7.31 62.6066 9.08V6.83H59.2166V23H62.8166V13.85C62.8166 11.33 64.3166 9.89 66.5366 9.89H68.4866V6.65H66.9866ZM76.8502 23.36C80.5402 23.36 83.0902 21.38 83.0902 18.47C83.0902 16.22 81.5902 14.6 78.8002 13.82L75.9202 13.01C74.9902 12.74 73.9702 12.23 73.9702 11.21C73.9702 10.19 74.9002 9.5 76.4002 9.5C78.2302 9.5 79.6702 10.43 80.2702 11.96L83.0902 10.64C82.1002 8.06 79.5802 6.47 76.4002 6.47C72.8302 6.47 70.4002 8.45 70.4002 11.36C70.4002 13.55 71.8102 15.2 74.6302 15.98L77.3902 16.7C78.3802 16.97 79.5202 17.45 79.5202 18.56C79.5202 19.67 78.4702 20.42 76.8502 20.42C74.9302 20.42 73.3402 19.4 72.5002 17.48L69.7102 18.83C70.7302 21.65 73.4902 23.36 76.8502 23.36ZM100.464 14.33C100.464 10.04 97.2245 6.47 92.6645 6.47C88.1045 6.47 84.6545 10.04 84.6545 14.9C84.6545 19.64 88.0445 23.36 92.9345 23.36C96.2345 23.36 98.8745 21.68 99.8645 19.37L96.8945 17.93C96.1745 19.25 94.8845 20.18 92.9645 20.18C90.4745 20.18 88.5845 18.53 88.4045 15.95H100.284C100.404 15.47 100.464 14.9 100.464 14.33ZM88.4645 13.16C88.8845 10.79 90.5645 9.47 92.6645 9.47C94.7345 9.47 96.4745 11 96.5945 13.16H88.4645ZM109.292 6.47C106.082 6.47 103.382 8.18 102.452 10.64L105.572 12.2C106.172 10.67 107.552 9.71 109.292 9.71C111.092 9.71 112.322 10.7 112.322 12.2V12.71L107.012 13.85C103.742 14.57 101.852 16.16 101.852 18.56C101.852 21.32 104.132 23.36 107.732 23.36C109.682 23.36 111.332 22.64 112.532 21.2V23H115.922V12.2C115.922 8.84 113.222 6.47 109.292 6.47ZM108.152 20.51C106.592 20.51 105.602 19.76 105.602 18.53C105.602 17.54 106.382 16.76 107.732 16.46L112.322 15.44V16.49C112.322 18.77 110.552 20.51 108.152 20.51Z" fill="#141522"/>
</svg>
