<svg width="101" height="55" viewBox="0 0 101 55" fill="none" xmlns="http://www.w3.org/2000/svg">
<path d="M12.36 0.119998V11.208C12.36 13.44 10.92 14.928 8.76 14.928C6.6 14.928 5.16 13.44 5.16 11.208V0.119998H1.44V11.208C1.44 15.216 4.368 18.288 8.76 18.288C13.152 18.288 16.08 15.216 16.08 11.208V0.119998H12.36ZM26.0993 4.608C24.4193 4.608 23.0033 5.208 22.0913 6.264V4.896H18.7313V22.8H22.3313V16.968C23.2193 17.784 24.5393 18.288 26.0753 18.288C29.8672 18.288 32.7473 15.264 32.7473 11.448C32.7473 7.608 29.8193 4.608 26.0993 4.608ZM25.6433 15.048C23.6992 15.048 22.3313 13.56 22.3313 11.448C22.3313 9.336 23.6992 7.848 25.6433 7.848C27.6113 7.848 29.0273 9.36 29.0273 11.448C29.0273 13.536 27.6113 15.048 25.6433 15.048ZM44.1304 4.896V6.288C43.2184 5.232 41.8744 4.608 40.1704 4.608C36.8344 4.608 33.7144 6.984 33.7144 10.944C33.7144 14.808 36.6904 17.352 40.2424 17.352C41.7064 17.352 42.9784 16.896 43.8904 16.032V17.304C43.8904 19.008 42.5464 20.088 40.7464 20.088C39.1624 20.088 38.0584 19.248 37.6504 17.832L34.5784 19.344C35.3464 21.744 37.7464 23.328 40.7464 23.328C44.3944 23.328 47.4904 20.976 47.4904 17.304V4.896H44.1304ZM40.6984 14.088C38.8504 14.088 37.4344 12.816 37.4344 10.992C37.4344 9.12 38.8984 7.848 40.6984 7.848C42.4984 7.848 43.8904 9.12 43.8904 10.992C43.8904 12.816 42.5464 14.088 40.6984 14.088ZM56.7917 4.752C55.1837 4.752 53.9117 5.232 53.2397 6.864V4.896H49.8797V18H53.4797V10.944C53.4797 9 54.6797 7.872 56.4317 7.872H58.1597V4.752H56.7917ZM65.1743 4.608C62.3903 4.608 60.1343 6 59.3663 8.16L62.4623 9.648C62.8463 8.472 63.9023 7.728 65.1743 7.728C66.3743 7.728 67.1903 8.376 67.1903 9.36V9.792L63.0863 10.656C60.4223 11.208 58.8863 12.48 58.8863 14.424C58.8863 16.608 60.7583 18.288 63.7343 18.288C65.2463 18.288 66.4463 17.832 67.4303 16.8V18H70.7903V9.36C70.7903 6.552 68.5103 4.608 65.1743 4.608ZM64.2863 15.648C63.2543 15.648 62.6063 15.168 62.6063 14.376C62.6063 13.776 62.9903 13.32 63.7343 13.152L67.1903 12.384V13.008C67.1903 14.472 65.9183 15.648 64.2863 15.648ZM82.4038 0.119998V6C81.5158 5.112 80.1958 4.608 78.6358 4.608C74.9158 4.608 71.9878 7.608 71.9878 11.448C71.9878 15.264 74.8438 18.288 78.6598 18.288C80.2678 18.288 81.7078 17.76 82.6438 16.752V18H86.0038V0.119998H82.4038ZM79.0918 15.048C77.1238 15.048 75.7078 13.56 75.7078 11.448C75.7078 9.36 77.1238 7.848 79.0918 7.848C81.0358 7.848 82.4038 9.336 82.4038 11.448C82.4038 13.584 81.0358 15.048 79.0918 15.048ZM100.819 11.064C100.819 7.44 97.9869 4.608 94.3149 4.608C90.5709 4.608 87.6909 7.512 87.6909 11.424C87.6909 15.216 90.4029 18.288 94.5549 18.288C97.2429 18.288 99.4029 17.016 100.195 15.096L97.3149 13.728C96.8109 14.616 95.8749 15.168 94.6029 15.168C92.8269 15.168 91.6509 14.112 91.4349 12.456H100.651C100.771 12.096 100.819 11.592 100.819 11.064ZM91.5069 9.816C91.8669 8.304 92.8989 7.488 94.3149 7.488C95.8029 7.488 96.8589 8.424 97.0029 9.816H91.5069ZM7.488 54.144C8.04 54.144 8.688 54.096 9.168 54.024V51.192C8.832 51.24 8.544 51.264 8.328 51.264C6.816 51.264 6.096 50.616 6.096 49.272V44.016H9.168V40.896H6.096V36.96H2.496V38.88C2.496 40.224 1.752 40.896 0.408 40.896H0.24V44.016H2.496V49.272C2.496 52.344 4.32 54.144 7.488 54.144ZM17.1443 54.288C21.0323 54.288 24.1523 51.408 24.1523 47.448C24.1523 43.488 21.0323 40.608 17.1443 40.608C13.2563 40.608 10.1363 43.488 10.1363 47.448C10.1363 51.408 13.2563 54.288 17.1443 54.288ZM17.1443 51.048C15.1763 51.048 13.8563 49.56 13.8563 47.448C13.8563 45.36 15.1763 43.848 17.1443 43.848C19.1123 43.848 20.4323 45.36 20.4323 47.448C20.4323 49.56 19.1123 51.048 17.1443 51.048Z" fill="white"/>
<path d="M30.3853 54H34.1053V47.52H37.7293C41.3773 47.52 44.0653 45.504 44.0653 41.832C44.0653 38.088 41.4253 36.12 37.7293 36.12H30.3853V54ZM34.1053 44.28V39.36H37.7533C39.3133 39.36 40.3453 40.344 40.3453 41.832C40.3453 43.296 39.3133 44.28 37.7533 44.28H34.1053ZM52.7839 40.752C51.1759 40.752 49.9039 41.232 49.2319 42.864V40.896H45.8719V54H49.4719V46.944C49.4719 45 50.6719 43.872 52.4239 43.872H54.1519V40.752H52.7839ZM61.8864 54.288C65.7744 54.288 68.8944 51.408 68.8944 47.448C68.8944 43.488 65.7744 40.608 61.8864 40.608C57.9984 40.608 54.8784 43.488 54.8784 47.448C54.8784 51.408 57.9984 54.288 61.8864 54.288ZM61.8864 51.048C59.9184 51.048 58.5984 49.56 58.5984 47.448C58.5984 45.36 59.9184 43.848 61.8864 43.848C63.8544 43.848 65.1744 45.36 65.1744 47.448C65.1744 49.56 63.8544 51.048 61.8864 51.048Z" fill="#FFBB54"/>
</svg>
